<svg width="6" height="12" viewBox="0 0 6 12" fill="none" xmlns="http://www.w3.org/2000/svg">
<path d="M0.12659 6.3293L5.26514 11.8643C5.4335 12.0455 5.70608 12.0452 5.87415 11.8634C6.0421 11.6815 6.04167 11.3869 5.87329 11.2055L1.0406 5.99998L5.87346 0.794435C6.04182 0.613029 6.04225 0.318631 5.87433 0.136757C5.79007 0.0455853 5.67969 -2.80022e-08 5.56931 -3.7652e-08C5.45921 -4.72771e-08 5.34927 0.0452807 5.26516 0.135819L0.12659 5.67068C0.0455025 5.75782 5.35341e-07 5.87642 5.24539e-07 5.99998C5.13736e-07 6.12354 0.0456327 6.24199 0.12659 6.3293Z" fill="black"/>
</svg>
